<svg width="1280" height="780" viewBox="0 0 1280 780" fill="none" xmlns="http://www.w3.org/2000/svg">
  <defs>
    <linearGradient id="bg" x1="84" y1="0" x2="1180" y2="780" gradientUnits="userSpaceOnUse">
      <stop stop-color="#F8FBFF"/>
      <stop offset="1" stop-color="#EAF2FB"/>
    </linearGradient>
    <linearGradient id="panel" x1="96" y1="120" x2="1090" y2="660" gradientUnits="userSpaceOnUse">
      <stop stop-color="#FFFFFF"/>
      <stop offset="1" stop-color="#F6FAFE"/>
    </linearGradient>
    <linearGradient id="accent" x1="200" y1="126" x2="510" y2="256" gradientUnits="userSpaceOnUse">
      <stop stop-color="#14A596"/>
      <stop offset="1" stop-color="#1B78FF"/>
    </linearGradient>
  </defs>

  <rect width="1280" height="780" fill="url(#bg)"/>
  <rect x="54" y="42" width="1172" height="696" rx="22" fill="url(#panel)" stroke="#D4E0ED" stroke-width="2"/>

  <rect x="84" y="82" width="1112" height="168" rx="16" fill="#F4F9FF" stroke="#D5E3F0"/>
  <rect x="108" y="106" width="470" height="22" rx="8" fill="#E4EEF9"/>
  <rect x="108" y="140" width="620" height="16" rx="8" fill="#E8F1FA"/>
  <rect x="108" y="166" width="560" height="16" rx="8" fill="#E8F1FA"/>
  <rect x="108" y="198" width="132" height="32" rx="14" fill="url(#accent)"/>
  <rect x="250" y="198" width="116" height="32" rx="14" fill="#EAF2FB" stroke="#D4E0ED"/>
  <rect x="376" y="198" width="116" height="32" rx="14" fill="#EAF2FB" stroke="#D4E0ED"/>

  <rect x="990" y="104" width="176" height="124" rx="12" fill="#EDF5FF" stroke="#D6E3F0"/>
  <rect x="1012" y="128" width="132" height="14" rx="7" fill="#D6E7FA"/>
  <rect x="1012" y="154" width="112" height="12" rx="6" fill="#DCEAF9"/>
  <rect x="1012" y="176" width="92" height="12" rx="6" fill="#DCEAF9"/>
  <rect x="1012" y="198" width="122" height="12" rx="6" fill="#DCEAF9"/>

  <rect x="84" y="270" width="384" height="438" rx="16" fill="#FDFEFF" stroke="#D8E4EF"/>
  <rect x="108" y="296" width="150" height="18" rx="8" fill="#DCEAF7"/>
  <rect x="108" y="326" width="220" height="13" rx="6" fill="#E4EEF8"/>
  <rect x="108" y="362" width="336" height="16" rx="8" fill="#E9F2FA"/>
  <rect x="108" y="388" width="240" height="38" rx="10" fill="#FFFFFF" stroke="#CCDBEA"/>
  <rect x="356" y="388" width="88" height="38" rx="10" fill="#F2F8FF" stroke="#CCDBEA"/>
  <rect x="108" y="442" width="336" height="16" rx="8" fill="#E9F2FA"/>
  <rect x="108" y="468" width="240" height="38" rx="10" fill="#FFFFFF" stroke="#CCDBEA"/>
  <rect x="356" y="468" width="88" height="38" rx="10" fill="#F2F8FF" stroke="#CCDBEA"/>
  <rect x="108" y="530" width="118" height="40" rx="10" fill="#11A08E"/>
  <rect x="236" y="530" width="96" height="40" rx="10" fill="#F2F8FF" stroke="#CCDBEA"/>
  <rect x="340" y="530" width="104" height="40" rx="10" fill="#F2F8FF" stroke="#CCDBEA"/>
  <rect x="108" y="592" width="336" height="92" rx="12" fill="#F2F8FF" stroke="#D6E3F0"/>
  <rect x="128" y="614" width="80" height="10" rx="5" fill="#C9DDF0"/>
  <rect x="128" y="636" width="278" height="12" rx="6" fill="#DAE8F6"/>

  <rect x="488" y="270" width="708" height="314" rx="16" fill="#FDFEFF" stroke="#D8E4EF"/>
  <rect x="512" y="296" width="126" height="18" rx="8" fill="#DCEAF7"/>
  <rect x="512" y="326" width="168" height="13" rx="6" fill="#E4EEF8"/>
  <rect x="1064" y="296" width="108" height="26" rx="13" fill="#ECF4FF" stroke="#CFDFF0"/>

  <rect x="512" y="364" width="660" height="92" rx="12" fill="#FFFFFF" stroke="#D4E2EF"/>
  <rect x="534" y="388" width="230" height="14" rx="7" fill="#D8E8F7"/>
  <rect x="534" y="412" width="284" height="12" rx="6" fill="#E2EDF8"/>
  <rect x="804" y="390" width="98" height="24" rx="12" fill="#DFF8F2" stroke="#9FDCCD"/>
  <rect x="928" y="392" width="152" height="10" rx="5" fill="#DFECF9"/>
  <rect x="928" y="410" width="212" height="12" rx="6" fill="#E6F0FA"/>
  <rect x="1090" y="388" width="72" height="30" rx="10" fill="#F2F8FF" stroke="#CCDBEA"/>
  <rect x="928" y="432" width="228" height="10" rx="5" fill="#11A08E"/>

  <rect x="512" y="472" width="660" height="92" rx="12" fill="#FFFFFF" stroke="#D4E2EF"/>
  <rect x="534" y="496" width="230" height="14" rx="7" fill="#D8E8F7"/>
  <rect x="534" y="520" width="284" height="12" rx="6" fill="#E2EDF8"/>
  <rect x="804" y="498" width="98" height="24" rx="12" fill="#ECF3FB" stroke="#CCDBEA"/>
  <rect x="928" y="500" width="152" height="10" rx="5" fill="#DFECF9"/>
  <rect x="928" y="518" width="212" height="12" rx="6" fill="#E6F0FA"/>
  <rect x="1090" y="496" width="72" height="30" rx="10" fill="#F2F8FF" stroke="#CCDBEA"/>
  <rect x="928" y="540" width="172" height="10" rx="5" fill="#D8E8F7"/>

  <rect x="488" y="594" width="708" height="114" rx="16" fill="#FDFEFF" stroke="#D8E4EF"/>
  <rect x="512" y="620" width="124" height="18" rx="8" fill="#DCEAF7"/>
  <rect x="512" y="650" width="176" height="13" rx="6" fill="#E4EEF8"/>
  <rect x="512" y="674" width="98" height="10" rx="5" fill="#DFECF9"/>
  <rect x="640" y="620" width="70" height="70" rx="10" fill="#F3F8FF" stroke="#D4E2EF"/>
  <rect x="720" y="620" width="70" height="70" rx="10" fill="#F3F8FF" stroke="#D4E2EF"/>
  <rect x="800" y="620" width="70" height="70" rx="10" fill="#F3F8FF" stroke="#D4E2EF"/>
  <rect x="880" y="620" width="70" height="70" rx="10" fill="#F3F8FF" stroke="#D4E2EF"/>
  <rect x="960" y="620" width="70" height="70" rx="10" fill="#F3F8FF" stroke="#D4E2EF"/>
  <rect x="1040" y="620" width="70" height="70" rx="10" fill="#F3F8FF" stroke="#D4E2EF"/>
  <rect x="1120" y="620" width="52" height="70" rx="10" fill="#F3F8FF" stroke="#D4E2EF"/>
</svg>

